<svg xmlns="http://www.w3.org/2000/svg" width="200" height="200" viewBox="0 0 200 200">
  <rect width="200" height="200" fill="#1a1a1a"/>
  <rect x="60" y="40" width="20" height="20" fill="#3b82f6"/>
  <rect x="80" y="40" width="20" height="20" fill="#3b82f6"/>
  <rect x="100" y="40" width="20" height="20" fill="#3b82f6"/>
  <rect x="120" y="40" width="20" height="20" fill="#3b82f6"/>
  
  <rect x="60" y="80" width="20" height="20" fill="#ef4444"/>
  <rect x="80" y="80" width="20" height="20" fill="#ef4444"/>
  <rect x="60" y="100" width="20" height="20" fill="#ef4444"/>
  <rect x="80" y="100" width="20" height="20" fill="#ef4444"/>
  
  <rect x="120" y="80" width="20" height="20" fill="#16a34a"/>
  <rect x="140" y="80" width="20" height="20" fill="#16a34a"/>
  <rect x="100" y="100" width="20" height="20" fill="#16a34a"/>
  <rect x="120" y="100" width="20" height="20" fill="#16a34a"/>
  
  <rect x="60" y="140" width="20" height="20" fill="#f59e0b"/>
  <rect x="80" y="140" width="20" height="20" fill="#f59e0b"/>
  <rect x="100" y="140" width="20" height="20" fill="#f59e0b"/>
  <rect x="80" y="120" width="20" height="20" fill="#f59e0b"/>
</svg>